<svg xmlns="http://www.w3.org/2000/svg" width="100%" height="100%" version="1.1" viewBox="0 0 16 16" xml:space="preserve" style="fill-rule:evenodd;clip-rule:evenodd;stroke-linejoin:round;stroke-miterlimit:2"><g><g><g><path d="M15,8C15,11.866 11.866,15 8,15C4.134,15 1,11.866 1,8C1,4.134 4.134,1 8,1C11.866,1 15,4.134 15,8" transform="matrix(1,0,0,1,0,-32) matrix(1,0,0,1,-1.77636e-15,32)" style="fill:#4372a7;fill-opacity:.6"/></g><g><g><path d="M0.071,-0L0.071,-0.522L0.159,-0.522L0.159,-0L0.071,-0ZM0.071,-0.62L0.071,-0.73L0.159,-0.73L0.159,-0.62L0.071,-0.62Z" transform="matrix(1,0,0,1,0,-32) matrix(0.949537,0,0,0.949537,2.95391,39.8374) matrix(12,0,0,12,3.93426,4.5512)" style="fill:#231f20;fill-opacity:.7;fill-rule:nonzero"/></g></g></g></g></svg>