<svg xmlns="http://www.w3.org/2000/svg" width="100%" height="100%" version="1.1" viewBox="0 0 16 16" xml:space="preserve" style="fill-rule:evenodd;clip-rule:evenodd;stroke-linejoin:round;stroke-miterlimit:1.41421"><g><g><g><path d="M15,8C15,11.866 11.866,15 8,15C4.134,15 1,11.866 1,8C1,4.134 4.134,1 8,1C11.866,1 15,4.134 15,8" transform="matrix(1,0,0,1,-32,0) matrix(1,0,0,1,32,0)" style="fill:#abf89b;fill-opacity:.6"/></g><g><path d="M4.81,-4.209L5.866,-4.209L5.866,2.931C5.866,3.163 5.928,3.345 6.052,3.477C6.176,3.609 6.35,3.675 6.574,3.675C6.662,3.675 6.766,3.661 6.886,3.633C7.006,3.605 7.118,3.571 7.222,3.531L7.39,4.383C7.214,4.455 7.006,4.515 6.766,4.563C6.526,4.611 6.314,4.635 6.13,4.635C5.722,4.635 5.4,4.519 5.164,4.287C4.928,4.055 4.81,3.731 4.81,3.315L4.81,-4.209Z" transform="matrix(1,0,0,1,-32,0) matrix(0.907482,0,0,0.907482,34.6579,7.87282)" style="fill:#231f20;fill-opacity:.698039;fill-rule:nonzero"/></g></g></g></svg>